<?xml version="1.0" encoding="utf-8"?>
<!-- Generator: Adobe Illustrator 27.5.0, SVG Export Plug-In . SVG Version: 6.00 Build 0)  -->
<svg version="1.1" id="Ñëîé_5" xmlns="http://www.w3.org/2000/svg" xmlns:xlink="http://www.w3.org/1999/xlink" x="0px" y="0px"
	 viewBox="0 0 500 500" style="enable-background:new 0 0 500 500;" xml:space="preserve">
<g>
	<linearGradient id="SVGID_1_" gradientUnits="userSpaceOnUse" x1="141.9633" y1="197.7943" x2="154.8226" y2="232.6981">
		<stop  offset="0" style="stop-color:#AEF0EB"/>
		<stop  offset="0.0131" style="stop-color:#B0F0EB"/>
		<stop  offset="0.1379" style="stop-color:#C2F4EB"/>
		<stop  offset="0.2895" style="stop-color:#CEF6EA"/>
		<stop  offset="0.4961" style="stop-color:#D5F8EA"/>
		<stop  offset="1" style="stop-color:#D7F8EA"/>
	</linearGradient>
	<path style="fill:url(#SVGID_1_);" d="M161.472,200.096c0,0,2.075,27.956,13.709,34.554c0,0-37.353-6.451-46.538-20.44
		C119.458,200.22,161.472,200.096,161.472,200.096z"/>
	
		<linearGradient id="SVGID_00000162336140605741294590000013698265861838273668_" gradientUnits="userSpaceOnUse" x1="126.9213" y1="325.6419" x2="205.8182" y2="244.7011" gradientTransform="matrix(0.1117 0.9937 -0.9937 0.1117 521.1897 134.5915)">
		<stop  offset="0.0397" style="stop-color:#06BED8"/>
		<stop  offset="1" style="stop-color:#DEFA8E"/>
	</linearGradient>
	<path style="fill:url(#SVGID_00000162336140605741294590000013698265861838273668_);" d="M198.677,282.581
		c23.017,6.305,28.455,4.54,32.557,10.71c0.471,0.708,2.876,4.328,2.395,8.974c-0.384,3.702-2.446,6.559-3.743,7.815
		c-7.885,7.633-29.582-1.705-42.008-11.918c-2.709-2.227-9.978-8.2-8.514-12.443c0.6-1.738,2.463-2.602,3.8-3.2
		C189.075,279.875,195.206,281.63,198.677,282.581z"/>
	
		<linearGradient id="SVGID_00000179603758579807138330000017611054551750277518_" gradientUnits="userSpaceOnUse" x1="257.3087" y1="145.3989" x2="272.0051" y2="143.2557">
		<stop  offset="0.0397" style="stop-color:#06CFF1"/>
		<stop  offset="1" style="stop-color:#DEFA8E"/>
	</linearGradient>
	
		<rect x="264.843" y="127.869" style="fill:url(#SVGID_00000179603758579807138330000017611054551750277518_);" width="4.899" height="32.148"/>
	
		<linearGradient id="SVGID_00000154415369398601776150000013611285715959114680_" gradientUnits="userSpaceOnUse" x1="253.5602" y1="182.7164" x2="279.641" y2="153.2704">
		<stop  offset="0.0397" style="stop-color:#06CFF1"/>
		<stop  offset="1" style="stop-color:#DEFA8E"/>
	</linearGradient>
	<path style="fill:url(#SVGID_00000154415369398601776150000013611285715959114680_);" d="M284.21,177.775h-33.834
		c-2.495,0-4.517-2.022-4.517-4.517v-12.092c0-2.495,2.022-4.517,4.517-4.517h33.834c2.495,0,4.517,2.022,4.517,4.517v12.092
		C288.726,175.753,286.704,177.775,284.21,177.775z"/>
	
		<linearGradient id="SVGID_00000147902338484093633970000010694665826741577653_" gradientUnits="userSpaceOnUse" x1="215.7845" y1="284.7118" x2="319.1329" y2="181.3633">
		<stop  offset="0.0397" style="stop-color:#06CFF1"/>
		<stop  offset="1" style="stop-color:#DEFA8E"/>
	</linearGradient>
	<path style="fill:url(#SVGID_00000147902338484093633970000010694665826741577653_);" d="M343.989,248.042
		c0,19.53-15.833,35.363-35.363,35.363h-82.667c-19.45,0-35.363-15.913-35.363-35.363v-18.37c0-34.605,28.313-62.919,62.919-62.919
		h27.556c34.605,0,62.919,28.313,62.919,62.919V248.042z"/>
	
		<linearGradient id="SVGID_00000155120228513843239130000000790490387072230335_" gradientUnits="userSpaceOnUse" x1="267.0208" y1="246.056" x2="267.9394" y2="204.7225">
		<stop  offset="0" style="stop-color:#030D14"/>
		<stop  offset="1" style="stop-color:#0B2F45"/>
	</linearGradient>
	<path style="fill:url(#SVGID_00000155120228513843239130000000790490387072230335_);" d="M319.862,244.693L319.862,244.693
		c-2.007,0.992-4.257,1.512-6.543,1.512h-92.052c-2.286,0-4.536-0.52-6.543-1.512l0,0c-4.93-2.437-7.712-7.358-7.016-12.406
		l0.051-0.367c2.359-17.099,17.845-30.245,36.831-31.233c8.033-0.418,16.463-0.634,25.256-0.583
		c6.888,0.04,13.546,0.242,19.957,0.572c19.058,0.982,34.658,14.076,37.026,31.24c0.017,0.123,0.034,0.247,0.051,0.37
		C327.575,237.335,324.792,242.256,319.862,244.693z"/>
	<g>
		
			<radialGradient id="SVGID_00000018211886156726300520000014623855983873919901_" cx="243.0316" cy="225.0789" r="17.1784" gradientUnits="userSpaceOnUse">
			<stop  offset="0.1296" style="stop-color:#3280FC"/>
			<stop  offset="1" style="stop-color:#000000"/>
		</radialGradient>
		<circle style="fill:url(#SVGID_00000018211886156726300520000014623855983873919901_);" cx="243.032" cy="225.079" r="17.358"/>
		<g>
			<circle style="fill:#EEFDFF;" cx="243.032" cy="225.079" r="12.459"/>
		</g>
		<g>
			
				<linearGradient id="SVGID_00000033362865301656935800000009991999107787559561_" gradientUnits="userSpaceOnUse" x1="232.5672" y1="225.0789" x2="253.496" y2="225.0789">
				<stop  offset="0" style="stop-color:#030D14"/>
				<stop  offset="1" style="stop-color:#0B2F45"/>
			</linearGradient>
			<circle style="fill:url(#SVGID_00000033362865301656935800000009991999107787559561_);" cx="243.032" cy="225.079" r="10.464"/>
		</g>
		<g>
			<path style="fill:#EEFDFF;" d="M249.735,222.367c0,2.141-1.735,3.876-3.876,3.876c-2.141,0-3.876-1.736-3.876-3.876
				s1.735-3.876,3.876-3.876C248,218.491,249.735,220.227,249.735,222.367z"/>
		</g>
		<g>
			<circle style="fill:#EEFDFF;" cx="241.485" cy="233.104" r="1.547"/>
		</g>
		<g>
			<path style="fill:#EEFDFF;" d="M237.649,230.783c0,0.427-0.346,0.773-0.773,0.773c-0.427,0-0.773-0.346-0.773-0.773
				c0-0.427,0.346-0.773,0.773-0.773C237.303,230.01,237.649,230.357,237.649,230.783z"/>
		</g>
	</g>
	<g>
		
			<radialGradient id="SVGID_00000013879949440216895660000014560071857704914854_" cx="289.9238" cy="225.0789" r="17.1784" gradientUnits="userSpaceOnUse">
			<stop  offset="0.1296" style="stop-color:#3280FC"/>
			<stop  offset="1" style="stop-color:#000000"/>
		</radialGradient>
		<circle style="fill:url(#SVGID_00000013879949440216895660000014560071857704914854_);" cx="289.924" cy="225.079" r="17.358"/>
		<g>
			<circle style="fill:#EEFDFF;" cx="289.924" cy="225.079" r="12.459"/>
		</g>
		<g>
			
				<linearGradient id="SVGID_00000062154902142082053850000006219797211032380579_" gradientUnits="userSpaceOnUse" x1="279.4594" y1="225.0789" x2="300.3882" y2="225.0789">
				<stop  offset="0" style="stop-color:#030D14"/>
				<stop  offset="1" style="stop-color:#0B2F45"/>
			</linearGradient>
			<circle style="fill:url(#SVGID_00000062154902142082053850000006219797211032380579_);" cx="289.924" cy="225.079" r="10.464"/>
		</g>
		<g>
			<path style="fill:#EEFDFF;" d="M296.628,222.367c0,2.141-1.736,3.876-3.876,3.876s-3.877-1.736-3.877-3.876
				s1.736-3.876,3.877-3.876S296.628,220.227,296.628,222.367z"/>
		</g>
		<g>
			<circle style="fill:#EEFDFF;" cx="288.377" cy="233.104" r="1.547"/>
		</g>
		<g>
			<path style="fill:#EEFDFF;" d="M284.541,230.783c0,0.427-0.346,0.773-0.773,0.773c-0.427,0-0.773-0.346-0.773-0.773
				c0-0.427,0.346-0.773,0.773-0.773C284.195,230.01,284.541,230.357,284.541,230.783z"/>
		</g>
	</g>
	
		<linearGradient id="SVGID_00000088120625222993170300000018402538022134391970_" gradientUnits="userSpaceOnUse" x1="254.0799" y1="127.6524" x2="273.5292" y2="124.816">
		<stop  offset="0.0397" style="stop-color:#06CFF1"/>
		<stop  offset="1" style="stop-color:#DEFA8E"/>
	</linearGradient>
	<path style="fill:url(#SVGID_00000088120625222993170300000018402538022134391970_);" d="M273.569,125.726
		c0,3.466-2.81,6.277-6.277,6.277c-3.466,0-6.276-2.81-6.276-6.277c0-3.466,2.81-6.277,6.276-6.277
		C270.759,119.449,273.569,122.259,273.569,125.726z"/>
	<path style="fill:#FFFFFF;" d="M271.656,123.276c0,1.057-0.857,1.913-1.914,1.913c-1.057,0-1.914-0.857-1.914-1.913
		c0-1.057,0.857-1.914,1.914-1.914C270.799,121.363,271.656,122.219,271.656,123.276z"/>
	<path style="fill:#FFFFFF;" d="M321.337,186.878c0.083,2.93-2.309,6.435-5.049,6.734c-2.568,0.281-4.619-2.343-6.734-5.049
		c-2.085-2.667-6.644-9.519-4.828-11.457C307.119,174.551,321.14,179.965,321.337,186.878z"/>
	<circle style="fill:#FFFFFF;" cx="297.875" cy="173.527" r="2.181"/>
	<path style="fill:#FFFFFF;" d="M321.026,227.526c-0.7,0.494-5.579-9.446-18.677-18.064c-4.604-3.03-9.149-5.189-8.879-5.817
		c0.274-0.637,5.393,0.548,9.491,2.449C316.019,212.152,321.858,226.939,321.026,227.526z"/>
	<path style="fill:#FFFFFF;" d="M287.486,162.903c-0.156,0.022-0.256-0.895-1.02-2.312c0,0-0.357-0.663-0.765-1.225
		c-1.315-1.81-5.773-1.77-6.123-1.767c-6.943,0.06-11.407-0.38-11.405-0.338c0.001,0.035,3.257-0.031,5.643-0.079
		c6.731-0.137,10.741-0.499,12.46,1.304c0.713,0.748,1.072,1.722,1.072,1.722C287.834,161.53,287.672,162.876,287.486,162.903z"/>
	<path style="fill:#EEFDFF;" d="M286.042,253.654c-0.17,1.663-1.554,2.944-3.218,3.104l-22.994,2.217
		c-1.663,0.16-3.267-0.831-3.752-2.431c-0.216-0.711-0.382-1.444-0.495-2.198c-0.031-0.208,0.024-0.42,0.154-0.587
		c0.13-0.166,0.322-0.271,0.532-0.292l29.009-2.798c0.207-0.02,0.412,0.046,0.569,0.182c0.157,0.136,0.25,0.331,0.259,0.538
		C286.141,252.156,286.118,252.912,286.042,253.654z"/>
	
		<linearGradient id="SVGID_00000085215910500040245870000003427998582676835513_" gradientUnits="userSpaceOnUse" x1="266.6646" y1="262.1102" x2="296.5875" y2="232.1873">
		<stop  offset="0.0714" style="stop-color:#0DA9AB"/>
		<stop  offset="1" style="stop-color:#DEFA8E"/>
	</linearGradient>
	<path style="fill:url(#SVGID_00000085215910500040245870000003427998582676835513_);" d="M286.043,253.656
		c-0.735,7.128-6.402,12.988-13.805,13.695c-7.302,0.707-13.897-3.821-16.065-10.526c0.579,1.433,2.085,2.306,3.656,2.149l23-2.214
		C284.491,256.595,285.869,255.318,286.043,253.656z"/>
	
		<linearGradient id="SVGID_00000114774809475665888460000004890406981806392244_" gradientUnits="userSpaceOnUse" x1="238.4036" y1="352.9143" x2="317.6843" y2="260.3349">
		<stop  offset="0.0397" style="stop-color:#06CFF1"/>
		<stop  offset="0.0408" style="stop-color:#06CFF1"/>
		<stop  offset="0.1607" style="stop-color:#37D9DB"/>
		<stop  offset="0.2745" style="stop-color:#5DE0CA"/>
		<stop  offset="0.3793" style="stop-color:#78E6BD"/>
		<stop  offset="0.4719" style="stop-color:#88E9B6"/>
		<stop  offset="0.5423" style="stop-color:#8EEAB3"/>
		<stop  offset="0.8004" style="stop-color:#B9F39F"/>
		<stop  offset="1" style="stop-color:#DEFA8E"/>
	</linearGradient>
	<path style="fill:url(#SVGID_00000114774809475665888460000004890406981806392244_);" d="M322.271,305.299
		c0,0.211,0,0.413-0.009,0.606c-0.073,1.929-0.524,3.38-0.744,4.032c-6.329,19.335-10.122,29.531-15.44,37.779
		c-0.918,1.424-1.883,2.792-2.921,4.133c-1.359,1.791-2.847,3.536-4.501,5.337c-3.674,3.996-9.231,5.805-11.022,6.43
		c-6.549,2.315-12.336,1.892-16.184,1.929h-0.671c-3.858-0.037-9.635,0.386-16.184-1.929c-1.791-0.625-7.357-2.434-11.022-6.43
		c-10.104-10.995-13.989-20.134-22.862-47.249c-0.211-0.624-0.634-1.975-0.735-3.784c-0.027-0.524-0.037-1.047-0.009-1.571
		c0.193-3.242,1.506-6.421,3.84-9.323c3.996-4.978,10.168-7.706,16.552-7.734l30.761-0.129l30.201-0.119
		c6.522-0.028,12.841,2.71,16.983,7.752c2.003,2.443,3.279,5.079,3.748,7.798c0.064,0.386,0.119,0.781,0.156,1.167
		C322.243,304.426,322.271,304.858,322.271,305.299z"/>
	
		<linearGradient id="SVGID_00000138534491986264145230000009194552508848950150_" gradientUnits="userSpaceOnUse" x1="234.2039" y1="306.7595" x2="281.8803" y2="251.0858">
		<stop  offset="0.0397" style="stop-color:#06CFF1"/>
		<stop  offset="1" style="stop-color:#DEFA8E"/>
	</linearGradient>
	<path style="fill:url(#SVGID_00000138534491986264145230000009194552508848950150_);" d="M271.114,287.401l-30.761,0.129
		c-6.384,0.028-12.556,2.756-16.552,7.734c-2.333,2.903-3.646,6.081-3.84,9.323c0.156-3.325,1.525-6.586,3.959-9.553
		c4.133-5.043,10.462-7.78,16.983-7.752L271.114,287.401z"/>
	
		<linearGradient id="SVGID_00000148650961268395584350000012783459194915067324_" gradientUnits="userSpaceOnUse" x1="379.9959" y1="355.0414" x2="445.2136" y2="321.0547" gradientTransform="matrix(-0.9886 -0.1505 -0.1505 0.9886 765.7411 45.2856)">
		<stop  offset="0.0397" style="stop-color:#06CFF1"/>
		<stop  offset="0.0734" style="stop-color:#0FD1ED"/>
		<stop  offset="0.4151" style="stop-color:#67E2C5"/>
		<stop  offset="0.6937" style="stop-color:#A7EFA7"/>
		<stop  offset="0.8955" style="stop-color:#CFF795"/>
		<stop  offset="1" style="stop-color:#DEFA8E"/>
	</linearGradient>
	<path style="fill:url(#SVGID_00000148650961268395584350000012783459194915067324_);" d="M301.687,332.72
		c-0.449-23.861-3.678-28.58,1.084-34.256c0.547-0.652,3.34-3.981,7.933-4.831c3.66-0.677,6.982,0.495,8.554,1.385
		c9.548,5.409,6.715,28.86,0.425,43.664c-1.371,3.228-5.05,11.887-9.534,11.68c-1.837-0.085-3.192-1.629-4.142-2.742
		C301.802,342.695,301.755,336.317,301.687,332.72z"/>
	
		<linearGradient id="SVGID_00000142147404709463399300000014273441360181628339_" gradientUnits="userSpaceOnUse" x1="284.3322" y1="334.8798" x2="326.4004" y2="312.9569">
		<stop  offset="0.0397" style="stop-color:#06BED8"/>
		<stop  offset="1" style="stop-color:#DEFA8E"/>
	</linearGradient>
	<path style="fill:url(#SVGID_00000142147404709463399300000014273441360181628339_);" d="M306.077,347.716
		c-0.918,1.424-1.883,2.792-2.921,4.133c-0.331-0.34-0.625-0.68-0.891-0.992c-4.207-4.923-4.253-11.298-4.317-14.898
		c-0.45-23.863-3.683-28.575,1.084-34.252c0.349-0.422,1.626-1.938,3.702-3.196c-4.703,5.658-1.497,10.416-1.047,34.206
		c0.064,3.6,0.119,9.975,4.317,14.908C306.031,347.652,306.059,347.679,306.077,347.716z"/>
	<path style="fill:#FFFFFF;" d="M319.542,312.85c-0.135-2.564-0.616-4.449-1.578-8.221c-1.258-4.934-2.836-7.339-1.811-8.292
		c0.667-0.62,1.981-0.201,2.279-0.106c4.51,1.439,5.906,9.9,5.712,15.195c-0.119,3.242-0.91,6.867-2.098,7.027
		c-0.187,0.025-0.653,0.001-0.986-0.294C319.734,316.988,319.645,314.799,319.542,312.85z"/>
	<path style="fill:#FFFFFF;" d="M322.639,321.899c0,0.517-0.419,0.936-0.936,0.936c-0.517,0-0.936-0.419-0.936-0.936
		c0-0.517,0.419-0.936,0.936-0.936C322.22,320.963,322.639,321.382,322.639,321.899z"/>
	
		<radialGradient id="SVGID_00000005989100045373852490000015507407940870264481_" cx="268.9718" cy="259.9652" r="48.488" gradientTransform="matrix(1.012 0 0 0.4143 -2.4574 280.8518)" gradientUnits="userSpaceOnUse">
		<stop  offset="0" style="stop-color:#BCD7D6"/>
		<stop  offset="1" style="stop-color:#FFFFFF"/>
	</radialGradient>
	
		<ellipse style="fill:url(#SVGID_00000005989100045373852490000015507407940870264481_);" cx="269.742" cy="388.555" rx="49.07" ry="20.089"/>
	
		<linearGradient id="SVGID_00000080904704391898222810000005549099685581539727_" gradientUnits="userSpaceOnUse" x1="19.0332" y1="166.7528" x2="181.0072" y2="166.7528">
		<stop  offset="0" style="stop-color:#D7F8EA"/>
		<stop  offset="0.5053" style="stop-color:#ECF8F2"/>
		<stop  offset="1" style="stop-color:#D7F8EA"/>
	</linearGradient>
	<path style="fill:url(#SVGID_00000080904704391898222810000005549099685581539727_);" d="M133.55,214.21H66.49
		c-26.101,0-47.457-21.356-47.457-47.457v0c0-26.101,21.356-47.457,47.457-47.457h67.06c26.101,0,47.457,21.356,47.457,47.457v0
		C181.007,192.854,159.652,214.21,133.55,214.21z"/>
	<g>
		
			<linearGradient id="SVGID_00000121999812026972802600000007268796830394815665_" gradientUnits="userSpaceOnUse" x1="44.976" y1="168.9547" x2="175.7228" y2="141.1934" gradientTransform="matrix(0.9989 -0.0459 0.0459 0.9989 -8.1114 5.7791)">
			<stop  offset="0.0397" style="stop-color:#06CFF1"/>
			<stop  offset="1" style="stop-color:#DEFA8E"/>
		</linearGradient>
		<path style="fill:url(#SVGID_00000121999812026972802600000007268796830394815665_);" d="M69.94,184.913
			c0.025,0.546-1.585,0.893-4.828,1.043c-3.244,0.149-4.878-0.049-4.903-0.595l-0.509-11.08l-6.744,0.31l0.509,11.08
			c0.025,0.546-1.584,0.894-4.828,1.043c-3.244,0.149-4.878-0.049-4.903-0.595l-1.468-31.939c-0.031-0.674,1.575-1.086,4.819-1.235
			c3.244-0.149,4.881,0.114,4.912,0.788l0.52,11.321l6.745-0.31l-0.516-11.224c-0.021-0.45,0.767-0.808,2.364-1.074
			c0.832-0.102,1.649-0.172,2.453-0.209l2.461-0.017c1.615,0.119,2.433,0.403,2.453,0.853L69.94,184.913z"/>
		
			<linearGradient id="SVGID_00000106859313843583722360000003614503126173023656_" gradientUnits="userSpaceOnUse" x1="47.1849" y1="179.3574" x2="177.9328" y2="151.5959" gradientTransform="matrix(0.9989 -0.0459 0.0459 0.9989 -8.1114 5.7791)">
			<stop  offset="0.0397" style="stop-color:#06CFF1"/>
			<stop  offset="1" style="stop-color:#DEFA8E"/>
		</linearGradient>
		<path style="fill:url(#SVGID_00000106859313843583722360000003614503126173023656_);" d="M92.703,183.383
			c-1.969,1.281-4.543,1.995-7.722,2.141c-3.179,0.146-5.911-0.815-8.194-2.882c-2.284-2.067-3.514-5.019-3.69-8.857
			c-0.176-3.837,0.733-6.977,2.729-9.419c1.995-2.441,4.599-3.736,7.811-3.883c3.211-0.148,5.729,0.557,7.555,2.115
			c1.826,1.558,2.792,3.509,2.9,5.853c0.239,5.203-2.628,7.941-8.601,8.216l-3.324,0.153c0.044,0.964,0.34,1.618,0.886,1.963
			c0.547,0.345,1.334,0.494,2.362,0.446c2.248-0.103,4.36-0.715,6.336-1.836c0.03-0.033,0.185,0.184,0.464,0.654
			c0.834,1.346,1.273,2.492,1.317,3.439C93.577,182.435,93.299,183.067,92.703,183.383z M86.042,169.738
			c-0.062-1.349-0.752-1.993-2.068-1.932c-0.611,0.028-1.124,0.237-1.54,0.626c-0.417,0.39-0.609,0.938-0.576,1.644l0.069,1.493
			l2.601-0.12C85.587,171.401,86.092,170.831,86.042,169.738z"/>
		
			<linearGradient id="SVGID_00000047036468184246252980000004989970372658503089_" gradientUnits="userSpaceOnUse" x1="46.9423" y1="178.2074" x2="177.6867" y2="150.4466" gradientTransform="matrix(0.9989 -0.0459 0.0459 0.9989 -8.1114 5.7791)">
			<stop  offset="0.0397" style="stop-color:#06CFF1"/>
			<stop  offset="1" style="stop-color:#DEFA8E"/>
		</linearGradient>
		<path style="fill:url(#SVGID_00000047036468184246252980000004989970372658503089_);" d="M106.715,183.657
			c0.013,0.289-1.618,0.509-4.894,0.659c-2.571,0.086-3.861,0.017-3.872-0.208l-1.508-32.806c-0.022-0.482,1.524-0.794,4.64-0.937
			c2.733-0.029,4.106,0.069,4.117,0.293L106.715,183.657z"/>
		
			<linearGradient id="SVGID_00000023981304809318066210000013805298288606436799_" gradientUnits="userSpaceOnUse" x1="47.5089" y1="180.8719" x2="178.2527" y2="153.1113" gradientTransform="matrix(0.9989 -0.0459 0.0459 0.9989 -8.1114 5.7791)">
			<stop  offset="0.0397" style="stop-color:#06CFF1"/>
			<stop  offset="1" style="stop-color:#DEFA8E"/>
		</linearGradient>
		<path style="fill:url(#SVGID_00000023981304809318066210000013805298288606436799_);" d="M119.817,183.055
			c0.013,0.289-1.618,0.509-4.894,0.659c-2.571,0.086-3.861,0.017-3.872-0.208l-1.508-32.806c-0.022-0.482,1.524-0.794,4.64-0.937
			c2.734-0.029,4.106,0.069,4.117,0.294L119.817,183.055z"/>
		
			<linearGradient id="SVGID_00000124131997143947742240000007839597120978259854_" gradientUnits="userSpaceOnUse" x1="49.3025" y1="189.3295" x2="180.0508" y2="161.5679" gradientTransform="matrix(0.9989 -0.0459 0.0459 0.9989 -8.1114 5.7791)">
			<stop  offset="0.0397" style="stop-color:#06CFF1"/>
			<stop  offset="1" style="stop-color:#DEFA8E"/>
		</linearGradient>
		<path style="fill:url(#SVGID_00000124131997143947742240000007839597120978259854_);" d="M126.135,180.302
			c-2.109-2.124-3.254-5.144-3.434-9.063c-0.18-3.918,0.683-7.031,2.588-9.339c1.905-2.308,4.56-3.541,7.964-3.697
			c3.404-0.156,6.153,0.828,8.246,2.952c2.093,2.124,3.23,5.146,3.41,9.064c0.18,3.919-0.675,7.031-2.564,9.338
			c-1.89,2.307-4.537,3.54-7.94,3.696C131.001,183.409,128.244,182.426,126.135,180.302z M133.647,166.247
			c-1.815,0.083-2.654,1.603-2.518,4.557c0.136,2.955,1.111,4.39,2.925,4.307c1.814-0.083,2.654-1.602,2.518-4.557
			C136.437,167.599,135.461,166.163,133.647,166.247z"/>
		
			<linearGradient id="SVGID_00000121968752465602503590000007690005666911490953_" gradientUnits="userSpaceOnUse" x1="49.1078" y1="188.3958" x2="179.8516" y2="160.6352" gradientTransform="matrix(0.9989 -0.0459 0.0459 0.9989 -8.1114 5.7791)">
			<stop  offset="0.0397" style="stop-color:#06CFF1"/>
			<stop  offset="1" style="stop-color:#DEFA8E"/>
		</linearGradient>
		<path style="fill:url(#SVGID_00000121968752465602503590000007690005666911490953_);" d="M148.549,174.879
			c-0.01-0.225,1.47-0.406,4.441-0.542c2.97-0.137,4.46-0.109,4.469,0.084l0.319,6.937c0.015,0.322-1.464,0.55-4.434,0.687
			c-2.971,0.137-4.461,0.108-4.469-0.084L148.549,174.879z M156.365,171.623c0.009,0.193-1.135,0.342-3.431,0.447
			c-2.297,0.106-3.448,0.079-3.456-0.082l-2.055-23.705c-0.012-0.256,1.451-0.453,4.39-0.588c2.938-0.135,4.413-0.09,4.423,0.135
			L156.365,171.623z"/>
	</g>
	<path style="fill:#FFFFFF;" d="M155.14,167.023c0,0-1.899-17.199-0.955-17.668C155.129,148.887,155.578,158.281,155.14,167.023z"/>
	<path style="fill:#FFFFFF;" d="M157.022,175.708c0,0.571-0.463,1.033-1.033,1.033c-0.571,0-1.033-0.463-1.033-1.033
		c0-0.571,0.463-1.033,1.033-1.033C156.559,174.675,157.022,175.138,157.022,175.708z"/>
	<path style="fill:#FFFFFF;" d="M143.49,168.176c0.006-0.959-0.109-3.693-2.094-5.909c-1.707-1.905-3.99-2.527-5.029-2.406
		c-0.198,0.023-0.87,0.139-0.914,0.42c-0.091,0.581,2.654,0.987,4.707,2.526C141.309,163.667,142.671,165.205,143.49,168.176z"/>
	<path style="fill:#FFFFFF;" d="M116.769,150.365c1.055-0.01,1.457,19.278,1.15,22.767
		C117.612,176.621,116.344,150.369,116.769,150.365z"/>
	<path style="fill:#FFFFFF;" d="M92.908,166.88c-0.462-2.608-3.439-5.536-5.297-5.078c-1.859,0.458,2.202,1.868,3.658,3.126
		C92.724,166.187,92.908,166.88,92.908,166.88z"/>
	<path style="fill:#FFFFFF;" d="M76.594,181.735c2.159,2.394,5.243,2.856,5.286,2.754c0.046-0.107-3.377-0.566-5.177-3.314
		c-0.847-1.292-1.686-3.626-2.244-3.627c-0.013,0-0.035,0.001-0.055,0.016C74.118,177.771,75.211,180.202,76.594,181.735z"/>
	<path style="fill:#FFFFFF;" d="M68.688,181.248c-0.689,0.946-0.781-23.395-1.222-25.774c0,0,0,0,0-0.156
		c-0.009-0.156-0.018-0.468-0.028-1.093c-0.002-0.138-0.13-0.615-0.24-0.715c-0.902-0.816-4.866-0.405-3.176-0.626
		c1.493-0.195,3.216-0.049,3.655,0.109c0.192,0.069,0.203,0.442,0.249,0.58C68.789,158.395,69.606,179.999,68.688,181.248z"/>
</g>
<path style="fill:#FFFFFF;" d="M175.051,154.989c-1.054,0.783-8.394-13.425-26.723-23.163c-10.312-5.478-18.724-6.685-18.504-7.68
	c0.258-1.167,12.278-1.598,23.176,3.854C169.368,136.189,176.192,154.142,175.051,154.989z"/>
<circle style="fill:#FFFFFF;" cx="176.428" cy="160.464" r="1.255"/>
<ellipse style="fill:#FFFFFF;" cx="78.205" cy="124.359" rx="8.804" ry="2"/>
<path style="fill:#FFFFFF;" d="M97.78,124.359c0,0.598-1.067,1.083-2.384,1.083c-1.317,0-2.384-0.485-2.384-1.083
	c0-0.598,1.067-1.083,2.384-1.083C96.713,123.276,97.78,123.761,97.78,124.359z"/>
<path style="fill:#FFFFFF;" d="M51.624,159.666c0.173,3.067,0.146,5.563-0.061,5.575c-0.207,0.012-0.515-2.465-0.688-5.533
	c-0.173-3.067-0.146-5.563,0.061-5.575C51.143,154.122,51.451,156.599,51.624,159.666z"/>
<path style="fill:#FFFFFF;" d="M163.667,220.333c1.431,4.018,2.929,6.366,2.583,6.583c-0.39,0.245-2.971-2.312-4.5-5.667
	c-2.675-5.87-1.238-12.231-0.667-12.25C161.564,208.984,161.219,213.461,163.667,220.333z"/>
</svg>
